<svg xmlns="http://www.w3.org/2000/svg" viewBox="0 0 512 512">
  <defs>
    <linearGradient id="waveGradient512" x1="0%" y1="0%" x2="100%" y2="100%">
      <stop offset="0%" style="stop-color:#f97316;stop-opacity:1" />
      <stop offset="100%" style="stop-color:#ea580c;stop-opacity:1" />
    </linearGradient>
  </defs>
  <rect width="512" height="512" fill="#020617" rx="64"/>
  <g fill="url(#waveGradient512)">
    <circle cx="256" cy="256" r="48"/>
    <path d="M256 160c-53 0-96 43-96 96s43 96 96 96 96-43 96-96-43-96-96-96zm0 160c-35.3 0-64-28.7-64-64s28.7-64 64-64 64 28.7 64 64-28.7 64-64 64z" opacity="0.3"/>
    <path d="M256 112c-79.5 0-144 64.5-144 144s64.5 144 144 144 144-64.5 144-144-64.5-144-144-144zm0 256c-61.9 0-112-50.1-112-112s50.1-112 112-112 112 50.1 112 112-50.1 112-112 112z" opacity="0.2"/>
    <path d="M256 64c-106 0-192 86-192 192s86 192 192 192 192-86 192-192-86-192-192-192zm0 352c-88.4 0-160-71.6-160-160S167.6 96 256 96s160 71.6 160 160-71.6 160-160 160z" opacity="0.1"/>
  </g>
  <g fill="none" stroke="url(#waveGradient512)" stroke-width="8" stroke-linecap="round">
    <path d="M256 128c-70.7 0-128 57.3-128 128s57.3 128 128 128 128-57.3 128-128-57.3-128-128-128z" opacity="0.6"/>
    <path d="M256 96c-88.4 0-160 71.6-160 160s71.6 160 160 160 160-71.6 160-160-71.6-160-160-160z" opacity="0.4"/>
    <path d="M256 160c-53 0-96 43-96 96s43 96 96 96 96-43 96-96-43-96-96-96z" opacity="0.8"/>
  </g>
  <g fill="#f8fafc">
    <path d="M180 256h152v16H180z"/>
    <path d="M248 188v136h16V188z"/>
  </g>
</svg>
